<?xml version="1.0" encoding="UTF-8" standalone="no"?><!-- Generator: Gravit.io --><svg xmlns="http://www.w3.org/2000/svg" xmlns:xlink="http://www.w3.org/1999/xlink" style="isolation:isolate" viewBox="0 0 512 512" width="512pt" height="512pt"><defs><clipPath id="_clipPath_p5vr1UL14wImiU4GXniEEIRRUPoj0um4"><rect width="512" height="512"/></clipPath></defs><g clip-path="url(#_clipPath_p5vr1UL14wImiU4GXniEEIRRUPoj0um4)"><path d=" M 8.9 9.9 L 6 12.8 L 6 255.8 L 6 498.7 L 8 501.3 C 9.2 502.8 11.8 504.4 13.8 505 C 18.9 506.4 493 506.4 498.1 505 C 503.3 503.5 505.5 500.7 505.5 495.3 C 505.5 491.6 505 490.4 502.7 488.4 L 499.9 486 L 263 486 L 26 486 L 25.8 248.9 L 25.5 11.8 L 22.7 9.4 C 18.6 5.9 12.8 6.1 8.9 9.9 Z " fill="rgb(0,0,0)"/><ellipse vector-effect="non-scaling-stroke" cx="196.75" cy="243.6" rx="34.64999999999998" ry="39.900000000000006" fill="rgb(0,255,0)"/><ellipse vector-effect="non-scaling-stroke" cx="96.75" cy="417.8" rx="34.650000000000006" ry="39.900000000000034" fill="rgb(255,255,0)"/><ellipse vector-effect="non-scaling-stroke" cx="348.35" cy="283.5" rx="34.64999999999998" ry="39.89999999999999" fill="rgb(0,0,255)"/><ellipse vector-effect="non-scaling-stroke" cx="455.90000000000003" cy="136.5" rx="34.64999999999998" ry="39.900000000000006" fill="rgb(255,0,0)"/><path d=" M 441 88.9 C 424.6 94.1 411.5 108.3 407.5 125.1 C 406.7 128.6 406 133.7 406 136.5 C 406 146.7 410.5 159.7 416.5 166.8 L 419.1 169.9 L 394.4 203.7 C 380.8 222.3 369 238.3 368.1 239.2 C 366.6 240.8 366.2 240.8 361 239 C 353.2 236.3 339 236.3 330.7 239.1 C 320.1 242.6 313 247.7 306.5 256.2 C 304.1 259.4 302 262.5 301.8 263.1 C 301.6 263.8 292 261.7 273.7 256.9 L 246 249.5 L 246 245.5 C 245.9 234.1 240 220.3 231.4 211.6 C 221.6 201.6 210.4 197 196 197 C 181.5 197 170.8 201.4 160.8 211.5 C 142.4 229.8 141.2 257.7 158 278.9 L 162.1 284.1 L 137.3 326.1 C 115.5 363 112.3 368 110.5 367.4 C 109.4 367.1 103.9 366.6 98.4 366.3 C 82.5 365.5 71.2 369.8 60.6 380.6 C 41.4 400.1 41.4 431.2 60.8 450.5 C 70.8 460.6 81.5 465 96 465 C 110.4 465 121.6 460.4 131.4 450.4 C 149.6 432 150.7 404.2 134 383.1 L 129.9 377.9 L 154.7 335.9 C 176.5 299 179.7 294 181.5 294.6 C 182.6 294.9 188.1 295.4 193.6 295.7 C 208.2 296.4 217.4 293.4 228.7 284.3 C 231.9 281.7 237.8 274.2 240.7 269.2 C 240.8 269 253.3 272.1 268.4 276.2 L 296 283.5 L 296 287.1 C 296 307.9 311.6 328.4 331.9 334.4 C 339 336.5 353 336.5 360.1 334.4 C 392.7 324.8 406.6 283.9 386.3 257.3 L 383 253 L 407.6 219.2 C 421.2 200.7 433 184.7 433.9 183.8 C 435.4 182.2 435.8 182.2 441 184 C 448 186.5 462.4 186.7 470.1 184.4 C 486.9 179.5 500.4 165.1 504.5 147.9 C 510.5 122.3 495.2 96 470.1 88.6 C 462.7 86.4 448.2 86.6 441 88.9 Z  M 468 109.1 C 473.8 111.7 479.5 117.2 482.8 123.5 C 485 127.7 485.5 129.8 485.5 136.5 C 485.5 143.2 485 145.3 482.8 149.5 C 477 160.5 468.2 165.9 455.9 166 C 449.8 166 447.4 165.5 443.2 163.4 C 433.1 158.4 426 147.2 426 136.5 C 426 125.7 433.5 114 443.5 109.4 C 450.2 106.2 461.4 106.1 468 109.1 Z  M 209.6 219.8 C 215.8 223 222.4 230.8 224.5 237.5 C 228.9 251.7 221.7 267.8 208 273.9 C 201.8 276.7 190.2 276.7 184 273.9 C 170.3 267.8 163.1 251.7 167.5 237.5 C 169.8 230.4 176.6 222.6 183.5 219.3 C 187.8 217.2 189.6 216.9 197 217.3 C 203.2 217.5 206.6 218.2 209.6 219.8 Z  M 359.6 259.8 C 365.8 263 372.4 270.8 374.5 277.5 C 378.9 291.7 371.7 307.8 358 313.9 C 351.4 316.9 340.2 316.8 333.5 313.6 C 323.5 309 316 297.3 316 286.5 C 316 274.2 325.1 261.8 337 257.9 C 341.7 256.3 355.1 257.5 359.6 259.8 Z  M 108.5 388.4 C 115.4 391.6 122.2 399.3 124.5 406.5 C 128.9 420.7 121.7 436.8 108 442.9 C 101.1 446 90 445.8 83.2 442.4 C 65.1 433.4 60.5 410.6 73.9 395.8 C 80.2 388.8 86.4 386 96 386 C 101.8 386 104.7 386.6 108.5 388.4 Z " fill="rgb(0,0,0)"/></g></svg>